<?xml version="1.0" encoding="UTF-8"?>
<svg id="Layer_2" data-name="Layer 2" xmlns="http://www.w3.org/2000/svg" xmlns:xlink="http://www.w3.org/1999/xlink" viewBox="0 0 61 61">
  <defs>
    <style>
      .cls-1 {
        fill: none;
      }

      .cls-1, .cls-2 {
        stroke-width: 0px;
      }

      .cls-3 {
        clip-path: url(#clippath);
      }

      .cls-2 {
        fill: #dbdbdb;
      }
    </style>
    <clipPath id="clippath">
      <rect class="cls-1" width="61" height="61"/>
    </clipPath>
  </defs>
  <g id="Layer_1-2" data-name="Layer 1">
    <g id="Group_2" data-name="Group 2">
      <g class="cls-3">
        <g id="Group_1" data-name="Group 1">
          <path id="Path_2" data-name="Path 2" class="cls-2" d="m30.32,60.95c-4.51,0-9.01.01-13.52,0-3.04-.05-6.01-.97-8.55-2.66-3.65-2.29-6.35-5.82-7.61-9.94-.47-1.58-.69-3.22-.65-4.87.03-8.67.03-17.34,0-26-.04-4.2,1.48-8.26,4.28-11.39C6.6,3.3,9.76,1.36,13.29.53,14.76.19,16.26.01,17.77,0c8.24-.03,16.49,0,24.73-.02,4.29-.13,8.48,1.24,11.87,3.88,2.87,2.26,4.93,5.38,5.89,8.9.54,2.07.79,4.21.74,6.34-.02,7.93,0,15.85-.01,23.78.07,4.17-1.3,8.23-3.89,11.5-2.31,2.88-5.47,4.96-9.03,5.94-1.54.41-3.12.62-4.71.62-4.35.08-8.69.03-13.04.03v-.02M5.68,30.54h-.03c0,4.4,0,8.8,0,13.2-.04.63-.02,1.27.06,1.9.51,3.03,2.19,5.75,4.66,7.57,1.59,1.33,3.56,2.11,5.63,2.22,8.75.08,17.49.06,26.24.04,1.31-.02,2.61-.13,3.9-.33,2.31-.39,4.43-1.55,5.99-3.3,2.09-2.21,3.24-5.16,3.2-8.2.03-1.59.02-3.18,0-4.77-.06-7.65-.05-15.3-.22-22.94-.15-2.72-1.42-5.25-3.5-7-2.28-2.09-5.28-3.21-8.37-3.13-8.51-.03-17.02-.04-25.52.02-1.47.03-2.94.25-4.35.67-2.38.75-4.42,2.33-5.76,4.44-1.11,1.44-1.77,3.18-1.9,4.99-.09,4.87-.03,9.75-.03,14.63"/>
          <path id="Path_3" data-name="Path 3" class="cls-2" d="m30.17,46.4c-8.1.34-15.84-7.28-15.58-16.19.22-7.71,6.85-15.8,16.56-15.33,8.7.36,15.46,7.71,15.1,16.41-.36,8.57-7.5,15.28-16.07,15.11m.11-25.93c-5.54-.17-10.14,4.76-10.11,10.22.05,5.67,4.68,10.22,10.34,10.17,5.67-.05,10.22-4.68,10.18-10.34-.04-5.6-4.61-10.1-10.21-10.06-.06,0-.13,0-.19,0"/>
          <path id="Path_4" data-name="Path 4" class="cls-2" d="m50.4,14.22c.04,2.02-1.56,3.69-3.58,3.72-.01,0-.02,0-.04,0-2.05-.09-3.67-1.76-3.71-3.81.1-2.06,1.85-3.66,3.91-3.58,1.95.06,3.48,1.69,3.42,3.64,0,0,0,.01,0,.02"/>
        </g>
      </g>
    </g>
  </g>
</svg>