<?xml version="1.0" encoding="UTF-8"?>
<svg id="Layer_2" data-name="Layer 2" xmlns="http://www.w3.org/2000/svg" viewBox="0 0 200.56 195.68">
  <defs>
    <style>
      .cls-1 {
        fill: #fff;
        stroke-width: 0px;
      }
    </style>
  </defs>
  <g id="Layer_1-2" data-name="Layer 1">
    <path class="cls-1" d="m188.44,21.3c-8.07-11.43-20.65-13.63-36.47-17.24C126.57-1.75,76.51-.84,48.83,3.73c-16.01,2.65-28.4,5.62-36.56,17.06C4.15,32.18.05,48.6,0,69.99v14.75c-.05,21.39,3.96,37.81,12.08,49.29,1.11,1.52,2.26,3,3.46,4.29v8.39c-.05,17.34,2.86,29.74,8.62,37.3s15.54,11.34,29.32,11.39l92.95.28c13.32.05,22.96-4.33,28.82-13.09,5.86-8.71,8.81-21.67,8.85-38.82v-4.29c1.52-1.48,2.86-3.14,4.15-4.93,8.11-11.39,12.22-27.8,12.26-49.2l.05-14.75c0-21.39-4.01-37.81-12.13-49.29ZM33.84,72.02c0-7.61,6.18-13.79,13.74-13.79h11.91c7.3,0,13.22,5.92,13.22,13.22v11.59h56.25v-12.05c0-7.3,5.92-13.22,13.22-13.22h9.74c8.78,0,15.91,7.12,15.91,15.91v22.57c0,4.93-3.99,8.92-8.92,8.92h-29.95v-8.11h-56.25v8.53h-29.95c-4.93,0-8.92-3.99-8.92-8.92v-24.65Zm87.93,31.77v10.37h-40.3v-10.37h40.3Zm44.26,46.2c0,6.32-1.57,11.34-4.7,15.17-3.14,3.78-7.38,4.98-12.68,4.98l-95.76-.46c-6.09-.05-12.31-.88-15.08-4.33-2.54-3.09-3.92-7.75-4.15-13.92-.05-.74-.09-1.43-.14-2.17-.09-.65-.18-1.34-.28-1.98l-5.07-28.59,141.78,1.38-3.92,29.83v.09Z"/>
  </g>
</svg>