<?xml version="1.0" encoding="UTF-8"?>
<svg id="Layer_2" data-name="Layer 2" xmlns="http://www.w3.org/2000/svg" xmlns:xlink="http://www.w3.org/1999/xlink" viewBox="0 0 48.83 61">
  <defs>
    <style>
      .cls-1 {
        fill: none;
      }

      .cls-1, .cls-2 {
        stroke-width: 0px;
      }

      .cls-3 {
        clip-path: url(#clippath);
      }

      .cls-2 {
        fill: #dbdbdb;
      }
    </style>
    <clipPath id="clippath">
      <rect class="cls-1" width="48.83" height="61"/>
    </clipPath>
  </defs>
  <g id="Layer_1-2" data-name="Layer 1">
    <g id="Group_4" data-name="Group 4">
      <g class="cls-3">
        <g id="Group_3" data-name="Group 3">
          <path id="Path_5" data-name="Path 5" class="cls-2" d="m21.32.21h.09s.5-.05.5-.05c.25-.03.51-.07.76-.08.52-.03,1.04-.05,1.56-.07h1.55c.54.04,1.09.08,1.63.12.4.03.79.06,1.18.09.31.05.62.11.94.16.44.07.88.13,1.32.22.47.1.94.22,1.41.33.64.2,1.28.39,1.91.6.33.11.65.25.97.38.44.19.89.37,1.33.58.49.24.97.51,1.46.76l2.05,1.36v-.02s0,.02,0,.02l.06.04h0l.11.09h0s.09.09.14.14c.77.72,1.56,1.42,2.3,2.16.48.47.89,1.01,1.33,1.52h0c.12.17.26.34.38.51.47.68.93,1.35,1.39,2.03h0l.13.23.09.15s0,.02.01.02h0s.05.1.05.1h0s.03.06.05.1h0s.04.07.06.1h0s0,.03.01.03c0,0,0,0,0,0,.12.24.24.48.36.73.06.13.13.26.2.38v.02h.01c.03.11.06.21.1.32.22.51.44,1.01.65,1.52.15.36.27.73.41,1.1v.05c.15.57.32,1.14.44,1.71.16.78.27,1.57.41,2.35v.24c.01.05.03.1.04.15v.1c.02.1.03.2.04.3s0,.2.01.3c-.06.2-.12.41.04.6,0,.05,0,.1.01.15,0,.07,0,.13,0,.2v.38s0,.05.01.08v.74c0,.16-.02.32-.03.48-.13.25-.15.54-.04.79v.34s-.05.06-.05.06c-.02.31-.03.63-.05.94,0,.04,0,.08,0,.12s0,.06-.01.09c-.02.11-.03.21-.05.32,0,.04-.01.08-.02.11-.01.07-.03.14-.04.22l-.26,1.52c-.15.63-.3,1.26-.45,1.89-.01.05-.03.1-.04.15l-.06.2-.08.29v.06c-.05.09-.08.18-.11.27-.1.32-.2.64-.3.96,0,.01,0,.03,0,.04l-.09.21c-.1.21-.2.43-.29.64l-1.33,2.57c-.09.14-.17.28-.26.42-.44.65-.89,1.31-1.34,1.96h0c-.2.25-.4.5-.6.74h0c-.22.24-.44.49-.65.73-.13.15-.26.3-.39.46h0l-.4.4h0l-.1.1-.09.09s-.03.03-.05.05c-.07.04-.14.09-.2.14-.19.18-.37.38-.56.55-.5.44-1.01.87-1.52,1.3h0l-.28.21h0s-.07.04-.11.06c-.87.66-1.81,1.22-2.8,1.68-.11.06-.22.13-.32.21l-1.08.46-.39.15s-.08,0-.12,0c-.94.36-1.91.61-2.9.75l-1.43.12h-.74l-.71-.03-.24-.02-.35-.04h-.19c-.11-.15-.3-.19-.45-.1h-.1s-.15-.05-.15-.05h-.1s-.15-.05-.15-.05c-.31-.08-.61-.17-.92-.25-.04,0-.08,0-.12,0l-.79-.3c-.07-.06-.15-.11-.23-.17-.4-.22-.82-.42-1.2-.67-.46-.3-.9-.63-1.34-.95l-1.59-1.63-.58-.78c-.04.45-.08.84-.11,1.22-.04.25-.08.51-.13.76-.1.54-.21,1.08-.32,1.62l-.05.21s0,.06-.01.08c-.08.35-.16.7-.24,1.05l-.25.99-.05.2h0s-.03.1-.04.15v.05s-.04.1-.05.15c-.01.01-.01.03,0,.05-.01,0-.02.03-.01.04,0,0,0,0,0,0-.01.04-.03.08-.05.11l-1.04,3.55c-.08.27-.16.54-.24.81-.02.05-.03.1-.05.15h0c-.17.44-.34.87-.51,1.31-.05.12-.09.25-.13.38l-.06.14c-.03.06-.07.12-.1.19-.41.86-.8,1.72-1.22,2.57-.52,1.01-1.14,1.97-1.85,2.85h0l-.05.05h0l-.37.39c-.37.38-.83.68-1.33.86-.03-.07-.06-.14-.08-.21-.18-.74-.37-1.47-.54-2.21-.08-.34-.14-.69-.2-1.03h0l-.09-1.29v-.35c-.02-.18-.04-.36-.05-.55l-.02-.1v-.2c0-.2,0-.39-.01-.59v-1.44c0-.09.02-.2.03-.3.04-.44.09-.87.13-1.31,0-.03-.03-.06-.04-.08,0-.08,0-.16.01-.24.01-.1.02-.2.03-.3v-.15c.17-.14.12-.3.04-.45,0-.05.02-.1.03-.15.01-.08.02-.17.03-.25,0-.05,0-.1.01-.15.15-.08.1-.19.03-.3,0-.05.02-.1.02-.14.02-.17.05-.33.07-.5,0-.05.01-.1.02-.15.01-.07.02-.14.03-.21v-.08s.05-.2.05-.2l.02-.19.02-.12c.01-.09.03-.18.04-.27.07-.38.15-.77.22-1.15h0s.03-.07.05-.1c.01,0,.01-.02,0-.03,0,0,0,0,0,0l.02-.06s.02-.08.02-.12c0-.02,0-.04,0-.06s.01,0,.01-.01c0-.01,0-.02,0-.04l.03-.08h0c.13-.65.27-1.29.41-1.93h0c.1-.45.2-.89.3-1.34h0s.04-.05.05-.08c.14-.6.27-1.2.41-1.79.18-.81.37-1.61.55-2.42h0c.04-.16.08-.31.12-.46.15-.68.3-1.36.45-2.04v-.1s0-.03,0-.05c0-.01,0-.02,0-.03.03-.04.07-.07.08-.11.2-.89.4-1.78.6-2.68l.05-.21c.17-.75.34-1.51.51-2.26.01,0,.02-.02,0-.04,0,0,0,0,0,0l.03-.11c.23-.52.25-1.1.06-1.64l-.35-1.39h0c0-.07,0-.15,0-.22-.2-.97-.32-1.96-.35-2.94v-1.2s0-.03,0-.04v-.1c.03-.44.07-.88.14-1.31.13-.62.32-1.24.48-1.85l.04-.1.02-.05.09-.22h0s.05-.1.05-.1h0s.04-.11.04-.11h-.02.02s.02-.05.03-.07v-.02s.06-.11.06-.11h-.01s0,0,0,0c.03-.06.07-.12.1-.18h0s.32-.57.32-.57h0c.05-.05.1-.1.15-.15.56-.83,1.3-1.51,2.17-2,.33-.19.68-.35,1.03-.52h.02s.99-.21.99-.21l.21-.08.19-.02.35-.04h.44l.45.04.16.02.15.04h.1s.11.04.11.04c.01.01.03.02.04.03.95.24,1.8.76,2.45,1.49h0s.06.1.09.15c.53.68.85,1.5.93,2.36l.05.1s.01.02,0,.03l.02.17.02.84c0,.1-.01.2-.01.3-.03.13-.06.26-.09.39-.03.31-.05.63-.1.94-.06.37-.16.73-.24,1.1-.02.03-.03.06-.05.09-.24.89-.46,1.79-.73,2.67-.56,1.78-1.14,3.55-1.72,5.32-.06.18-.1.37-.14.55,0,.01,0,.03,0,.05l-.04.05-.02.05s-.02.04-.02.06l-.02.09-.03.06s0,.03-.01.05l-.04.1s0,.03-.01.05c-.06.18-.12.37-.19.55-.14.14-.18.36-.1.55,0,.08-.01.16-.01.24s-.02.13-.03.2c0,.15-.01.3-.02.44v.35c0,.1.01.2.01.3s.02.17.03.25c.02.1.04.21.06.31.12.64.37,1.24.74,1.77h0c.39.65.94,1.2,1.59,1.59h0c.04.06.09.11.14.15.6.39,1.26.69,1.95.87.8.17,1.61.24,2.42.21l.15-.03.29-.02.2-.03.15-.02.15-.03h.1s.15-.05.15-.05l.14-.03.1-.03c.11-.03.21-.07.32-.09.7-.19,1.36-.5,1.96-.9l1.21-.88,1.66-1.71c.61-.7,1.14-1.47,1.59-2.28.21-.37.4-.76.6-1.14l.03-.04.13-.28h0l.05-.1h0c.21-.49.43-.97.63-1.46.05-.14.1-.29.14-.44l.41-1.18h0l.04-.08s.04-.09.06-.14c.22-.86.44-1.71.66-2.57l.03-.1v-.15s0-.03.01-.05c.13-.07.18-.24.1-.37,0-.01-.01-.02-.02-.03,0-.05,0-.1.01-.15.01-.07.03-.13.04-.2,0-.05,0-.1.01-.15.01-.07.02-.14.03-.2s.01-.16.02-.24.02-.14.03-.2.01-.13.02-.2c.12-.18.13-.41.03-.6l.02-.39v-.79c0-.11-.01-.23-.02-.34.03-.25.04-.49.05-.74-.02-.14-.07-.27-.13-.4,0-.07,0-.13-.01-.2l-.03-.25v-.15c-.03-.05-.03-.1-.04-.15l-.02-.19c-.01-.07-.03-.14-.04-.2,0-.04-.01-.09-.02-.13s-.01-.08-.02-.12-.03-.1-.04-.14-.02-.1-.02-.15c-.03-.1-.07-.2-.1-.3h0c-.04-.25-.09-.49-.15-.73-.25-.78-.48-1.57-.8-2.33-.31-.72-.72-1.4-1.09-2.09l-1.34-1.82-1.63-1.6h0l-.05-.05h0l-1.28-.96h0l-.06-.04s0-.02-.02-.01c0,0,0,0,0,0-.32-.22-.64-.42-.98-.6-.63-.31-1.28-.58-1.92-.87h0s-.05-.08-.08-.09c-.23-.08-.46-.16-.69-.22-.27-.07-.55-.12-.82-.19-.34-.08-.68-.17-1.01-.26-.11-.03-.22-.06-.32-.09l-2.45-.27-1.39-.03c-.18.01-.36.02-.54.03-.62.06-1.24.09-1.85.18s-1.18.24-1.78.37l-.2.05c-.96.23-1.88.57-2.77.99-1.01.44-1.97.99-2.85,1.66h0s-.02,0-.02.01c0,0,0,0,0,0l-.12.08h0l-.36.27-.53.43s-.02,0-.02.02l-.1.09h0l-.06.05h0l-.27.22h0s-.27.27-.27.27h0l-.65.64h0l-.05.05h0l-.05.05h0l-.05.05h0l-.12.12v.02s-.03,0-.03.01c0,0,0,0,0,0l-.07.08h.01s-.01,0-.01,0l-.05.06h.01s-.01,0-.01,0l-.69.85h0s-.03,0-.04.02l-.94,1.38-.1.2s-.09.09-.13.14c-.3.57-.62,1.14-.9,1.73-.49,1.09-.84,2.24-1.05,3.41-.08.4-.11.81-.16,1.21-.01.12-.02.23-.03.35,0,.15-.01.3-.02.44v1.04c0,.29,0,.58.02.86.05.49.13.98.19,1.47.07.26.13.53.19.8.29,1.27.72,2.5,1.27,3.67.31.65.66,1.27,1.06,1.86.36.37.46.91.24,1.38v.03c-.04.13-.07.27-.11.4-.01.03-.02.07-.03.1s-.02.09-.03.14v.02c-.07.24-.14.49-.21.73-.29,1.05-.59,2.1-.88,3.17l-.16.38s-.03,0-.04.01l-.39-.17h0l-1.3-.84h0l-1.11-.82h0s-.17-.13-.17-.13h0l-.07-.07h-.02s-.03-.05-.03-.05h0s-1.34-1.28-1.34-1.28h0l-.31-.34h0s-.04-.07-.07-.1c-.56-.79-1.13-1.57-1.69-2.36-.2-.29-.35-.61-.53-.91h0l-.05-.1h0l-.1-.2h0l-.5-1.2s0-.02,0-.03l-.2-.65-.04-.12h0s0-.01,0-.01h0c-.03-.11-.06-.21-.09-.31-.14-.61-.28-1.22-.42-1.83.09-.08.11-.15-.03-.2,0-.03,0-.06-.01-.1l-.03-.15s0-.1-.01-.15c.06-.11.11-.22-.04-.3v-.1c-.02-.07-.03-.14-.04-.2l-.02-.24c.07-.14.12-.28-.04-.4v-.2c.05-.16.11-.31-.05-.45l-.02-.38v-1.45c0-.15.02-.29.03-.44,0-.15.02-.3.03-.45,0-.08,0-.17.02-.25,0-.17.02-.33.03-.5l.02-.15c.01-.08.02-.17.03-.25,0-.07.01-.13.02-.2s.02-.14.03-.2v-.2c.04-.18.07-.37.09-.55.07-.36.13-.72.2-1.07.12-.57.24-1.13.36-1.7h0c.04-.09.08-.17.11-.27.16-.48.3-.97.46-1.45.16-.44.34-.88.51-1.31l.16-.45s.02-.02.02-.03l.04-.05.17-.35s.02-.03.03-.05l.08-.15.02-.05s.01-.02.01-.04l.04-.06s.02-.02.01-.03c.01-.02.03-.04.04-.06l1.65-2.65h0l.3-.46.06-.05.66-.84.05-.04.06-.06.04-.04.05-.06,1.04-1.1,1.41-1.3h0s0,0,0,0l.05-.04h0l.54-.43h.01s.37-.28.37-.28l.04-.05,1.7-1.13h0s0,0,0,0l.13-.07s.07-.04.11-.05c.82-.42,1.63-.88,2.47-1.27.63-.3,1.3-.52,1.96-.76.57-.21,1.14-.41,1.71-.58.46-.13.93-.21,1.39-.31.42-.1.84-.21,1.27-.29.57-.1,1.14-.18,1.71-.26"/>
        </g>
      </g>
    </g>
  </g>
</svg>