<?xml version="1.0" encoding="UTF-8"?>
<svg id="Layer_2" data-name="Layer 2" xmlns="http://www.w3.org/2000/svg" xmlns:xlink="http://www.w3.org/1999/xlink" viewBox="0 0 61 46">
  <defs>
    <style>
      .cls-1 {
        fill: none;
      }

      .cls-1, .cls-2 {
        stroke-width: 0px;
      }

      .cls-3 {
        clip-path: url(#clippath);
      }

      .cls-2 {
        fill: #dbdbdb;
      }
    </style>
    <clipPath id="clippath">
      <rect class="cls-1" width="61" height="46"/>
    </clipPath>
  </defs>
  <g id="Layer_1-2" data-name="Layer 1">
    <g id="Group_6" data-name="Group 6">
      <g class="cls-3">
        <g id="Group_5" data-name="Group 5">
          <path id="Path_6" data-name="Path 6" class="cls-2" d="m60.56,12.03c.06,1.25.14,2.5.19,3.74.05,1.27.09,2.54.13,3.81.03.95.05,1.89.07,2.84.02,1.06.06,2.12.06,3.18,0,1.09-.03,2.19-.07,3.28-.04,1.02-.08,2.05-.17,3.06-.13,1.43-.29,2.85-.47,4.27-.14,1.28-.44,2.55-.88,3.76-.75,1.96-2.3,3.5-4.26,4.25-1.46.57-3,.91-4.56,1.01-1.42.14-2.84.2-4.26.29-.94.06-1.87.09-2.81.13-.87.04-1.74.11-2.62.13-4.15.08-8.31.16-12.47.2-1.95.02-3.9-.04-5.84-.07-.71-.01-1.41-.04-2.12-.07-.9-.04-1.81-.09-2.71-.13l-2.68-.13c-.94-.05-1.88-.03-2.81-.15-1.72-.15-3.42-.41-5.11-.77-3.18-.65-5.61-3.21-6.09-6.41-.22-1.12-.39-2.26-.54-3.39-.15-1.18-.26-2.37-.35-3.56-.07-.8-.11-1.61-.12-2.42-.03-2.79-.06-5.58-.06-8.36,0-1.04.07-2.09.12-3.13.06-1.29.11-2.58.19-3.87.07-1.95.32-3.88.74-5.78C1.64,4.45,4.19,1.84,7.47,1.17c1.16-.29,2.35-.46,3.54-.5,1.06-.02,2.12-.13,3.18-.19.71-.04,1.41-.04,2.12-.07.95-.04,1.89-.09,2.84-.13.78-.03,1.56-.06,2.35-.07,3.67-.07,7.35-.15,11.03-.2,1.53-.02,3.07.04,4.6.07.61.01,1.22.04,1.83.06.72.03,1.43.05,2.15.08.98.04,1.96.08,2.93.13,1,.05,2,.1,3,.15.83.04,1.66.07,2.49.13,1.57.07,3.13.32,4.65.74,2.73.77,4.85,2.92,5.56,5.67.47,1.63.75,3.32.82,5.02m-36.21,1.25v19.41l15.6-9.7-15.6-9.7"/>
        </g>
      </g>
    </g>
  </g>
</svg>